# xmcd CD database file
#
# Track frame offsets:
#	150
#	12063
#	25668
#	37375
#	60895
#	74912
#	89529
#	103155
#	116115
#	133686
#	145863
#
# Disc length: 2165 seconds
#
# Revision: 0
# Processed by: cddbd v1.5.2PL0 Copyright (c) Steve Scherf et al.
# Submitted via: ACXtractor (MTCDDB.DLL V2003.07.15)
#
DISCID=9f08730b
DTITLE=Bobby Flores - Neon Nights
DYEAR=2007
DGENRE=Country
TTITLE0=Country Girl
TTITLE1=I'm So Afraid Of Losing You Again
TTITLE2=The Same Old Memories
TTITLE3=Spanish Eyes
TTITLE4=Talk Back Trembling Lips
TTITLE5=Case of Sorrow
TTITLE6=I Hate You
TTITLE7=Who'll Be The First To Say
TTITLE8=I Let My Mind Wander
TTITLE9=A Stranger Was Here
TTITLE10=Make The World Go Away
EXTD=ID3G:   2 YEAR: 2007
EXTT0=
EXTT1=
EXTT2=
EXTT3=
EXTT4=
EXTT5=
EXTT6=
EXTT7=
EXTT8=
EXTT9=
EXTT10=
PLAYORDER=
